<svg xmlns="http://www.w3.org/2000/svg" width="237.323" height="151.023" viewBox="0 0 237.323 151.023">
  <path id="box-icon2" d="M162.811,69.724a32.362,32.362,0,1,0-32.362-32.362A32.227,32.227,0,0,0,162.811,69.724Zm-86.3,0A32.362,32.362,0,1,0,44.15,37.362,32.227,32.227,0,0,0,76.512,69.724Zm0,21.575C51.377,91.3,1,103.92,1,129.055v26.968H152.023V129.055C152.023,103.92,101.646,91.3,76.512,91.3Zm86.3,0c-3.128,0-6.688.216-10.464.539C164.86,100.9,173.6,113.09,173.6,129.055v26.968h64.724V129.055C238.323,103.92,187.945,91.3,162.811,91.3Z" transform="translate(-1 -5)" fill="#f7f7f7"/>
</svg>
