<svg xmlns="http://www.w3.org/2000/svg" width="145" height="145" viewBox="0 0 145 145">
  <path id="box-icon4" d="M44.5,118A14.5,14.5,0,1,0,59,132.5,14.481,14.481,0,0,0,44.5,118ZM1,2V16.5H15.5L41.6,71.528,31.813,89.29A14.017,14.017,0,0,0,30,96.25a14.543,14.543,0,0,0,14.5,14.5h87V96.25H47.545a1.8,1.8,0,0,1-1.812-1.812l.217-.87L52.475,81.75h54.013a14.431,14.431,0,0,0,12.687-7.467L145.13,27.23a7.083,7.083,0,0,0,.87-3.48,7.271,7.271,0,0,0-7.25-7.25H31.522L24.708,2H1ZM117,118a14.5,14.5,0,1,0,14.5,14.5A14.481,14.481,0,0,0,117,118Z" transform="translate(-1 -2)" fill="#f7f7f7"/>
</svg>
